<?xml version="1.0" standalone="no"?>
<!DOCTYPE svg PUBLIC "-//W3C//DTD SVG 20010904//EN"
 "http://www.w3.org/TR/2001/REC-SVG-20010904/DTD/svg10.dtd">
<svg version="1.0" xmlns="http://www.w3.org/2000/svg"
 width="255.000000pt" height="255.000000pt" viewBox="0 0 255.000000 255.000000"
 preserveAspectRatio="xMidYMid meet">

<g transform="translate(0.000000,255.000000) scale(0.100000,-0.100000)"
fill="#E84A43" stroke="none">
<path d="M0 1275 l0 -1275 1275 0 1275 0 0 1275 0 1275 -1275 0 -1275 0 0
-1275z m1595 870 c177 -52 297 -139 366 -267 33 -61 34 -67 34 -174 0 -107 -1
-112 -38 -187 -72 -145 -212 -251 -396 -297 l-44 -11 7 -63 c8 -81 40 -195 73
-259 89 -178 207 -214 331 -103 49 45 81 47 116 6 71 -86 28 -227 -95 -309
-79 -53 -165 -75 -271 -69 -97 5 -146 26 -219 95 -121 113 -210 322 -254 598
-9 55 -17 101 -19 102 -6 6 -48 -230 -62 -351 -11 -86 -14 -166 -10 -232 l6
-101 -41 -38 c-58 -52 -122 -79 -191 -79 -47 -1 -61 3 -83 24 -76 70 -74 200
10 555 99 419 131 590 142 769 6 101 5 109 -11 103 -41 -16 -129 -83 -174
-132 -90 -98 -109 -175 -72 -284 20 -59 20 -64 4 -82 -47 -52 -163 -75 -224
-44 -114 59 -140 254 -57 425 43 88 166 212 272 274 198 115 419 168 675 161
109 -3 152 -9 225 -30z"/>
<path d="M1297 1818 c-7 -108 -31 -265 -61 -390 l-13 -58 46 0 c90 0 220 47
288 104 16 13 42 48 58 78 24 44 29 65 30 123 0 147 -90 225 -291 250 l-51 6
-6 -113z"/>
</g>
</svg>
